<?xml version="1.0" standalone="no"?>
<!DOCTYPE svg PUBLIC "-//W3C//DTD SVG 20010904//EN"
 "http://www.w3.org/TR/2001/REC-SVG-20010904/DTD/svg10.dtd">
<svg version="1.0" xmlns="http://www.w3.org/2000/svg"
 width="700.000000pt" height="700.000000pt" viewBox="0 0 700.000000 700.000000"
 preserveAspectRatio="xMidYMid meet">
<metadata>
Created by potrace 1.14, written by Peter Selinger 2001-2017
</metadata>
<g transform="translate(0.000000,700.000000) scale(0.100000,-0.100000)"
fill="#000000" stroke="none">
<path d="M6575 6429 c-16 -5 -79 -50 -140 -102 -105 -88 -453 -380 -842 -705
l-181 -152 -1716 0 c-944 0 -1715 3 -1714 8 4 14 -13 87 -33 142 -73 197 -231
381 -409 474 -38 20 -72 37 -75 37 -2 0 -24 8 -48 18 -72 31 -204 54 -307 53
-66 -1 -147 -9 -159 -16 -3 -2 -23 -7 -43 -10 -127 -20 -306 -122 -421 -241
-267 -275 -329 -684 -154 -1020 171 -328 513 -510 889 -472 68 7 204 43 236
63 12 8 22 12 22 9 0 -15 187 107 242 160 l27 25 89 -35 c213 -86 388 -217
501 -377 34 -48 52 -59 214 -132 42 -19 77 -38 78 -43 0 -4 2 -26 4 -48 11
-113 16 -146 35 -212 59 -211 199 -403 378 -517 68 -43 153 -86 172 -86 7 0
10 -370 10 -1115 l0 -1115 -378 0 -378 0 -51 -25 c-78 -39 -119 -101 -127
-191 -10 -128 66 -238 179 -260 20 -3 492 -7 1048 -7 1123 0 1052 -4 1125 66
55 53 66 82 67 179 0 80 -2 89 -30 129 -17 24 -50 57 -74 74 l-43 30 -391 5
-392 5 0 1107 0 1107 100 51 c277 138 467 419 491 725 9 112 9 112 73 145 48
24 74 48 134 122 42 51 84 100 94 108 10 8 43 36 73 61 119 98 288 179 540
258 341 107 411 140 516 246 48 48 54 58 82 142 22 64 29 94 41 178 6 45 6 70
2 165 l-1 30 -82 0 -83 1 30 26 c54 46 128 109 225 189 52 43 100 83 106 89 6
5 135 114 287 240 151 127 280 239 287 250 49 88 -29 190 -125 164z m-5265
-274 c181 -46 294 -109 422 -237 100 -101 177 -235 214 -373 20 -75 20 -75
-38 -75 -28 0 -49 3 -46 6 8 7 -32 125 -62 184 -181 360 -624 521 -986 360
-410 -183 -579 -670 -367 -1060 64 -118 144 -204 259 -280 254 -167 588 -162
841 12 l72 50 51 -17 51 -17 -23 -23 c-48 -47 -188 -134 -266 -164 -113 -43
-245 -65 -357 -58 -93 6 -100 7 -175 26 -276 70 -525 309 -606 580 -29 98 -41
226 -31 326 39 404 341 718 747 778 58 8 240 -2 300 -18z"/>
</g>
</svg>
